 <svg  version="1.0" xmlns="http://www.w3.org/2000/svg"  width="300.000000pt" height="300.000000pt" viewBox="0 0 300.000000 300.000000"  preserveAspectRatio="xMidYMid meet">  <g transform="translate(0.000000,300.000000) scale(0.100000,-0.100000)" fill="#2bca68" stroke="none"> <path d="M1240 2514 c0 -6 32 -51 71 -100 39 -49 85 -108 101 -131 33 -48 56 -58 34 -15 -35 67 -206 271 -206 246z"/> <path d="M1749 2469 c-118 -141 -178 -229 -156 -229 7 0 21 14 31 31 10 17 54 75 98 130 83 105 106 162 27 68z"/> <path d="M1374 2202 c-6 -4 -14 -19 -17 -34 -6 -23 5 -41 79 -131 l87 -105 40 51 c22 29 62 77 88 107 46 54 47 56 34 88 -8 17 -20 32 -27 32 -8 0 -34 -40 -58 -90 -24 -49 -47 -90 -51 -90 -4 0 -11 -14 -14 -32 -7 -30 -8 -31 -21 -13 -8 11 -12 25 -9 33 2 7 1 11 -4 8 -8 -5 -94 155 -87 161 13 13 38 -18 53 -63 9 -30 18 -52 20 -51 1 2 -3 31 -9 65 -11 58 -13 62 -39 62 -15 0 -33 2 -41 5 -7 3 -18 1 -24 -3z m36 -42 c0 -5 -7 -10 -15 -10 -8 0 -15 5 -15 10 0 6 7 10 15 10 8 0 15 -4 15 -10z m255 0 c3 -5 -3 -10 -15 -10 -12 0 -18 5 -15 10 3 6 10 10 15 10 5 0 12 -4 15 -10z"/> <path d="M1576 2188 c-9 -28 -24 -123 -21 -127 2 -2 10 18 16 45 7 26 24 58 37 71 l25 23 -27 0 c-15 0 -28 -6 -30 -12z"/> <path d="M1330 2009 c0 -85 1 -89 66 -230 36 -79 76 -163 90 -187 l25 -42 -21 -231 c-12 -127 -19 -233 -17 -236 6 -5 15 59 27 186 l7 76 2 -87 c2 -128 21 -112 22 20 l2 107 8 -75 c15 -150 22 -225 21 -242 0 -10 4 -18 10 -18 6 0 7 14 4 38 -4 20 -15 132 -25 247 l-19 210 23 40 c13 23 53 106 89 185 l67 145 -3 86 -3 87 -90 -99 -90 -98 -97 102 -98 102 0 -86z m354 1 c-8 -28 -43 -123 -78 -213 -35 -89 -66 -169 -69 -177 -3 -8 -6 21 -6 65 -1 69 4 94 36 183 20 56 42 102 48 102 11 0 34 24 60 64 10 14 19 26 21 26 1 0 -4 -23 -12 -50z m-207 -141 c22 -61 32 -108 35 -171 2 -48 1 -85 -4 -82 -4 3 -8 11 -8 19 0 8 -34 99 -75 203 -41 104 -75 195 -75 202 0 7 22 -10 49 -38 38 -39 55 -68 78 -133z"/> <path d="M1402 1255 c1 -309 4 -400 9 -305 3 74 7 254 8 399 1 229 3 262 16 257 21 -8 19 3 -10 49 l-24 40 1 -440z"/> <path d="M1618 1658 c-13 -27 -14 -38 -5 -47 8 -8 12 -72 13 -204 3 -378 7 -537 13 -537 5 0 4 736 -2 799 -2 22 -3 21 -19 -11z"/> <path d="M1024 1594 c3 -9 6 -25 7 -37 0 -21 1 -20 10 3 18 45 29 0 34 -147 l4 -138 -14 75 -14 75 6 -70 c6 -85 79 -515 89 -524 3 -3 4 19 1 49 -11 94 -30 440 -25 445 2 3 22 -59 43 -138 74 -278 133 -403 298 -635 l59 -83 17 23 c10 13 53 75 95 138 123 182 190 337 252 583 25 102 51 157 40 87 -3 -19 -10 -127 -16 -240 -6 -113 -13 -211 -15 -217 -3 -7 -1 -13 3 -13 12 0 102 554 101 615 -1 17 -7 -13 -15 -65 -20 -141 -24 -139 -18 8 6 171 11 194 35 187 14 -5 19 -1 19 14 0 12 -4 21 -9 21 -14 0 -150 -143 -207 -215 -97 -126 -98 -129 -105 -320 -7 -207 -33 -337 -79 -403 -16 -23 -30 -47 -30 -52 0 -6 -4 -10 -8 -10 -4 0 -16 -14 -27 -32 -16 -28 -19 -30 -25 -13 -6 17 -7 16 -13 -6 -6 -22 -9 -20 -44 36 -20 33 -45 69 -55 80 -19 20 -22 31 -57 190 -16 76 -21 135 -21 241 l0 141 -48 74 c-95 144 -298 351 -268 273z m191 -197 c72 -92 116 -177 115 -224 -1 -16 -2 -16 -17 2 -16 20 -16 20 -8 0 6 -18 24 -133 25 -163 0 -7 -5 -10 -11 -6 -8 5 -8 1 0 -13 6 -11 8 -23 6 -25 -3 -3 4 -33 15 -68 19 -59 33 -130 25 -130 -3 0 -17 26 -65 120 -20 39 -79 211 -86 250 -2 14 -6 35 -9 48 -7 30 13 28 21 -3 3 -14 10 -25 15 -25 4 0 -8 37 -27 83 -20 45 -42 97 -50 116 -8 19 -17 31 -21 28 -3 -4 -1 -12 4 -19 16 -21 23 -48 13 -48 -11 0 -25 25 -34 63 -5 20 -3 27 4 22 7 -4 5 7 -3 27 -8 19 -14 47 -14 62 0 33 -4 36 102 -97z m721 108 c-8 -9 -13 -21 -10 -29 3 -7 -18 -64 -47 -127 -28 -63 -58 -131 -65 -153 -12 -34 -12 -37 1 -26 25 21 26 7 5 -61 -11 -35 -25 -80 -31 -99 -16 -53 -83 -190 -93 -190 -4 0 -5 10 -2 23 4 12 9 30 11 40 2 10 7 28 11 39 3 12 7 86 7 166 0 112 4 152 16 176 21 39 79 125 104 151 10 11 33 39 50 63 17 23 37 42 44 42 12 0 12 -3 -1 -15z m-22 -143 c-4 -18 -10 -32 -15 -32 -12 0 -11 14 3 45 15 32 20 27 12 -13z"/> <path d="M1139 1445 c55 -96 114 -192 132 -215 29 -35 22 -22 -61 115 -71 116 -117 181 -71 100z"/> <path d="M1857 1382 c-31 -53 -73 -123 -92 -154 -19 -32 -33 -58 -30 -58 4 0 95 138 95 144 0 3 20 39 46 81 25 43 43 79 42 81 -2 2 -30 -40 -61 -94z"/> <path d="M1371 1483 c-7 -54 -15 -109 -17 -123 -4 -17 -2 -22 5 -15 5 6 12 35 15 65 3 30 9 81 12 113 3 31 4 57 1 57 -2 0 -10 -44 -16 -97z"/> <path d="M1665 1470 c5 -80 11 -119 20 -128 9 -10 4 62 -10 133 l-14 70 4 -75z"/> <path d="M1803 1457 c-60 -62 -103 -131 -103 -163 0 -9 12 5 26 32 22 43 67 109 83 124 4 3 19 20 35 38 52 57 21 34 -41 -31z"/> <path d="M1043 1465 c0 -22 2 -30 4 -17 2 12 2 30 0 40 -3 9 -5 -1 -4 -23z"/> <path d="M1282 1390 c24 -36 48 -74 52 -84 3 -10 9 -16 12 -13 10 9 -46 103 -79 134 -25 24 -23 18 15 -37z"/> <path d="M1523 1100 c0 -36 2 -50 4 -32 2 17 2 47 0 65 -2 17 -4 3 -4 -33z"/> <path d="M1460 1045 c0 -14 2 -25 4 -25 2 0 6 11 8 25 3 14 1 25 -3 25 -5 0 -9 -11 -9 -25z"/> </g> </svg> 